<?xml version="1.0" encoding="UTF-8"?>
<svg id="Ebene_1" xmlns="http://www.w3.org/2000/svg" version="1.1" viewBox="0 0 582.8 234.6" width="583" height="235">
  <!-- Generator: Adobe Illustrator 30.2.1, SVG Export Plug-In . SVG Version: 2.1.1 Build 1)  -->
  <defs>
    <style>
      .st0 {
        fill: #1a1a18;
      }

      .st1 {
        fill: #7dcc90;
      }
    </style>
  </defs>
  <g>
    <path class="st1" d="M149.2,101.5h-12.9c.3,1.8.6,3.9,1,5.9h11.9v46.6c.8,1,1.6,1.9,2.3,2.7,0,0,0,0,.1.1.6.7,1.3,1.4,2,2.1.8.8,1.6,1.6,2.4,2.6v-59.9h-6.8Z"/>
    <path class="st1" d="M125.9,169.3h-43.1v-61.8h10.9s20.9,0,20.9,0c.3-1.9.5-3.9.6-5.9h-32.4v-42.2h-6.8l-29.9,42.2v5.9h29.9v67.7h49.9c0-.6,0-1.3,0-2,0-.5,0-1.2,0-2.8,0-.4,0-.8,0-1.1ZM76,101.5h-22.5l22.5-32v32Z"/>
    <path class="st0" d="M65,132.4c-.1,0-.3,0-.4,0-7,1.2-12,5.5-13.2,11.5-1.2,6,1.5,12.4,6.6,15.7,2.2,1.4,7.7,3.9,15.2.5v-27.8c-2.9,0-5.6,0-8.1,0Z"/>
    <path class="st0" d="M155.6,165.6c-1.2-1.8-2.7-3.3-4.1-4.7-.2-.2-.4-.4-.5-.6-.5-.6-1.1-1.1-1.6-1.7,0,0,0,0,0,0,0,0,0,0,0,0,0,0,0,0,0,0-.3-.3-.6-.7-.9-1-.2-.2-.4-.5-.6-.7-.1-.1-.2-.3-.3-.4-.3-.3-.5-.7-.8-1,0,0,0,0-.1-.1-2-2.6-4.1-5.6-5.2-8.1-2-4.5-1.3-5.4-1.2-5.4.9-1,4-.6,6.2-.1v-15.7c-3.5-1.5-6.4-3.6-8.2-6.1-1.1-1.6-2.3-5.4-3.2-9.5h0s0,0,0,0c-.1-.5-.2-1.1-.3-1.6,0,0,0,0,0,0-.2-1.1-.4-2.3-.6-3.4,0,0,0,0,0,0,0-.6-.2-1.1-.3-1.7,0,0,0,0,0,0-.4-2.2-.6-4.2-.8-5.8,0,0,0,0,0,0-.1-1.3-.2-2.2-.1-2.7.3-4,2.6-13.1,4.5-20.5,1.8-7.2,2.8-11.3,2.9-13.2,0-.2,0-.3,0-.5-.5-6.6-3.9-11.5-9.2-13.5-5.4-2-11.9-.6-16.1,3.5-4.2,4.1-5.3,10.1-3.1,16.4.1.5.3,1.2.8,2.7,1.5,5.2,5.5,19.1,5.6,25,.1,8-.3,18-5.3,24.8-2.9,3.9-14.8,9.6-21.5,11.5-1.7.5-3.6.8-5.7,1v19.5c3.3-2.5,6.9-5.2,9.7-6.2,7.5-2.8,17.6-5.3,23.2-2,.3.2.6.3.9.5,3.3,1.3,6.5,4.8,8.4,9.3.8,1.8,1.1,7.7.8,17.4,0,1.4,0,2,0,2.5,0,0,0,.1,0,.2,0,.6,0,1.2,0,1.8,0,1.2.3,2.2.6,3.3,1.3,4.5,4.5,7.5,8.2,9.1,1.8.8,3.7,1.2,5.7,1.2.1,0,.3,0,.4,0,3.6,0,7.1-1.2,9.7-3.5,1.6-1.4,3.5-3.7,4.4-7.1,0-.3.1-.6.2-.9,0-.3.1-.7.2-1,0-.6.1-1.3.2-2,0-2.3-.4-4.2-1.2-6-.4-.9-.9-1.7-1.4-2.5Z"/>
    <path class="st0" d="M189.5,136.3c-1.3-6.1-6.4-10.2-14-11.2-.2,0-.4,0-.7,0-3.1.2-6.3.9-9.4,1.5-2.2.5-4.4.9-6.6,1.2v19.5c1.5.8,3.1,1.8,4.9,2.9h.1c6.3,5,13.1,5.7,18.7,2.3,5.3-3.3,8.3-10.1,6.9-16.2Z"/>
    <path class="st0" d="M65,132.4c-.1,0-.3,0-.4,0-7,1.2-12,5.5-13.2,11.5-1.2,6,1.5,12.4,6.6,15.7,2.3,1.5,7.9,4,15.6.3v-27.6s0,0-.1,0c-3,0-5.8,0-8.4,0Z"/>
    <path class="st0" d="M150.7,160c-.4-.4-.8-.9-1.2-1.3,0,0,0,0,0,0,0,0,0,0,0,0,0,0,0,0,0,0-.3-.3-.6-.6-.9-1-.2-.2-.4-.5-.6-.7-.1-.1-.2-.2-.3-.4-.3-.3-.5-.7-.8-1,0,0,0,0,0-.1-2-2.6-4.1-5.6-5.2-8.1-2-4.5-1.3-5.4-1.2-5.4.9-1.1,4.3-.5,6.5,0v-15.6c-3.7-1.5-6.7-3.7-8.5-6.3-1.1-1.6-2.3-5.4-3.2-9.5h0s0,0,0,0c-.1-.6-.2-1.1-.4-1.7,0,0,0,0,0,0-.2-1.2-.5-2.3-.6-3.5h0c0-.6-.2-1.1-.3-1.7,0,0,0,0,0,0-.6-4-1-7.4-.9-8.5.3-4,2.6-13.1,4.5-20.5,1.8-7.2,2.8-11.3,2.9-13.2,0-.2,0-.3,0-.5-.5-6.6-3.9-11.5-9.2-13.5-5.4-2-11.9-.6-16.1,3.5-4.2,4.1-5.3,10.1-3.1,16.4.1.5.3,1.2.8,2.7,1.5,5.2,5.5,19.1,5.6,25,0,1.3,0,2.7,0,4.1h0c-.1,7.1-1.2,15-5.3,20.7-2.9,3.9-14.8,9.6-21.5,11.5-1.7.5-3.6.8-5.6,1v19.5c3.2-2.5,6.9-5.1,9.6-6.1,7.5-2.8,17.6-5.3,23.2-2,.3.2.6.3.9.5,3.3,1.3,6.5,4.8,8.4,9.3.8,1.7,1,7,.9,15.6,0,.2,0,.3,0,.5,0,.4,0,.8,0,1.3,0,.2,0,.4,0,.5,0,.2,0,.3,0,.5,0,.9,0,1.3,0,1.7,0,3.7.9,6.7,2.6,9.1.3.4.6.8.9,1.1,2.2,2.5,5.2,4.1,8.3,4.8.9.2,1.8.3,2.7.3.1,0,.2,0,.3,0,0,0,0,0,.1,0,1.4,0,2.7-.2,4-.5.4-.1.8-.2,1.3-.4.8-.3,1.6-.7,2.4-1.1.4-.2.7-.4,1.1-.7.4-.2.7-.5,1-.8,1.2-1,2.6-2.6,3.6-4.8.2-.5.4-1,.6-1.5.4-1.4.7-2.9.8-4.7.2-6-3.7-10-6.7-13.1-.3-.3-.5-.6-.8-.8Z"/>
    <path class="st0" d="M189.5,136.3c-1.3-6.1-6.4-10.2-14-11.2-.2,0-.4,0-.7,0-3.1.2-6.3.9-9.4,1.5-2.2.5-4.4.9-6.6,1.2v19.5c1.5.8,3.1,1.8,4.9,2.9h.1c6.3,5,13.1,5.7,18.7,2.3,5.3-3.3,8.3-10.1,6.9-16.2Z"/>
  </g>
  <g>
    <path class="st0" d="M243.8,175.2h-46.3v-6.9l37.6-59.3h-37.1v-6.8h45.5v6.8l-37.8,59.3h38.1v6.9Z"/>
    <path class="st0" d="M266.2,175.2h-7.7v-73h7.7v73Z"/>
    <path class="st0" d="M330.9,175.2h-7.5l-34.2-59.1v59.1h-7.5v-73h7.5l34.2,59.2v-59.2h7.5v73Z"/>
    <path class="st0" d="M392.5,153.2v9.9c0,7-5.2,12.2-12.1,12.2h-22.4c-6.9,0-12.1-5.2-12.1-12.2v-48.7c0-7.1,5.2-12.2,12.1-12.2h22.4c6.9,0,12.1,5,12.1,12.2v9.4l-7.7,1.2v-9.3c0-3.9-2.4-6.4-6.4-6.4h-18.4c-3.9,0-6.4,2.4-6.4,6.4v46.1c0,3.9,2.4,6.4,6.4,6.4h18.4c3.9,0,6.4-2.4,6.4-6.4v-9.9l7.7,1.3Z"/>
    <path class="st1" d="M407.3,102.2h33c6.9,0,12,4.9,12,12v13.8c0,4.1-2.1,7.6-5.6,9.3,3.6,1.1,6.3,4.5,6.3,9.4v16.6c0,6.9-5,12-12,12h-33.7v-73ZM438.8,134.1c3.7,0,5.8-2.6,5.8-6.4v-12.2c0-3.9-2.4-6.4-6.4-6.4h-23.2v24.9h23.8ZM415,168.2h23.9c4.2,0,6.4-2.4,6.4-6.4v-14.5c0-3.8-2.3-6.4-6-6.4h-24.2v27.2Z"/>
    <path class="st1" d="M475.6,175.2h-7.7v-73h7.7v73Z"/>
    <path class="st1" d="M514.2,139h22.9v24c0,7-5.2,12.2-12.2,12.2h-22c-6.9,0-12.1-5.2-12.1-12.2v-48.7c0-7.1,5.2-12.2,12.1-12.2h22c7,0,12.2,5,12.2,12.2v7.7l-7.7,1.2v-7.6c0-3.9-2.4-6.4-6.4-6.4h-18.2c-3.9,0-6.4,2.4-6.4,6.4v46.1c0,3.9,2.4,6.4,6.4,6.4h18.2c3.9,0,6.4-2.4,6.4-6.4v-15.7h-15.2v-7Z"/>
  </g>
</svg>